<svg xmlns="http://www.w3.org/2000/svg" width="160" height="160" viewBox="0 0 160 160">
  
  <g fill="none" stroke-width="0">
    <rect x="14" y="20" width="10" height="10" rx="2" fill="#08b65a" transform="rotate(18 19 25)"></rect>
    <circle cx="70" cy="14" r="5" fill="#ffc21e"></circle>
    <rect x="110" y="22" width="9" height="9" rx="2" fill="#15b8e8" transform="rotate(-22 114 26)"></rect>
    <path d="M138 56 l7 12 l-14 0 z" fill="#ff2e63"></path>
    <circle cx="28" cy="64" r="5" fill="#ff2e63"></circle>
    <rect x="58" y="54" width="9" height="9" rx="2" fill="#15b8e8" transform="rotate(30 62 58)"></rect>
    <path d="M96 50 l6 11 l-12 0 z" fill="#ffc21e"></path>
    <circle cx="148" cy="98" r="5" fill="#08b65a"></circle>
    <rect x="16" y="104" width="9" height="9" rx="2" fill="#ffc21e" transform="rotate(-14 20 108)"></rect>
    <circle cx="74" cy="100" r="5" fill="#15b8e8"></circle>
    <path d="M120 104 l6 11 l-12 0 z" fill="#08b65a"></path>
    <rect x="44" y="132" width="9" height="9" rx="2" fill="#ff2e63" transform="rotate(24 48 136)"></rect>
    <circle cx="100" cy="140" r="5" fill="#ffc21e"></circle>
    <rect x="138" y="134" width="9" height="9" rx="2" fill="#15b8e8" transform="rotate(-18 142 138)"></rect>
  </g>
</svg>